<?xml version="1.0" encoding="utf-8"?>
<!-- Generator: Adobe Illustrator 24.0.0, SVG Export Plug-In . SVG Version: 6.00 Build 0)  -->
<svg version="1.1" id="Layer_1" xmlns="http://www.w3.org/2000/svg" xmlns:xlink="http://www.w3.org/1999/xlink" x="0px" y="0px"
	 viewBox="0 0 570.2 116.6" style="enable-background:new 0 0 570.2 116.6;" xml:space="preserve">
<style type="text/css">
	.st0{fill:url(#SVGID_1_);}
	.st1{fill:url(#SVGID_2_);}
	.st2{fill:#4C4A4C;}
	.st3{opacity:0.5;fill:#231F20;}
	.st4{opacity:0.2;fill:#FFFFFF;}
	.st5{fill:#5E5E5E;}
	.st6{fill-rule:evenodd;clip-rule:evenodd;fill:#5E5E5E;}
	.st7{opacity:0.5;}
	.st8{fill:#7C7D82;}
</style>
<g>
	<g id="_x28_change_color_here">
		<linearGradient id="SVGID_1_" gradientUnits="userSpaceOnUse" x1="314.4983" y1="-11.1386" x2="387.4986" y2="61.8618">
			<stop  offset="0" style="stop-color:#26A9E0"/>
			<stop  offset="1" style="stop-color:#B3DCC0"/>
		</linearGradient>
		<path class="st0" d="M354.1,23.2c0.1,5.3-2,10.3-5.6,13.9c0.9,0.1,1.9,0.1,3.1-0.1c1-0.1,1.7-0.3,1.7-0.3l0,0
			c3.1-0.6,8.1-4.5,8.1-10.2c0-9.3-8.8-11.6-9.3-11.7C352.6,15.9,354,19,354.1,23.2z"/>
		<linearGradient id="SVGID_2_" gradientUnits="userSpaceOnUse" x1="284.8576" y1="18.5021" x2="357.8578" y2="91.5023">
			<stop  offset="0" style="stop-color:#26A9E0"/>
			<stop  offset="1" style="stop-color:#B3DCC0"/>
		</linearGradient>
		<path class="st1" d="M333,64.8c-8.9,9.3-18.2,9-18.2,9c-9.4,0-17.1-7.6-17.1-17.1c0-5.9,3-11,7.5-14.1c3.3,3.7,8,6,13.3,6
			c1.8,0,3.5-0.3,5.2-0.8c3.4-1,6.3-3.2,8.2-6l0.1-0.2c0-0.1,0.1-0.1,0.1-0.2l0.2,0.1c0.9,0.3,1.9,0.4,2.9,0.3c0.1,0,0.2,0,0.2,0
			c2.5-0.2,4.8-0.8,6.9-1.9c6.4-3.2,10.1-10,10-17.1c-0.1-5.6-2.4-9-2.4-9c-2-3.4-5-6-8.7-7.6l0,0c-4.4-1.9-10.8-3.7-18.5-3.7
			c-13.1,0-25.1,4.9-34.2,13c13.4-7.6,26.1-3.1,26.1-3.1c-28.9-1.8-39.7,19.6-42.3,31c-0.8,3.9-1.2,8-1.1,12.1
			c0.1,5.2,1.1,10.3,2.7,15c2,6,7,10.5,13.2,11.8c7.4,1.6,18.9,1.7,33.4-5.4c0,0-18.3,14.7-37,10.3c8.4,9.9,20.4,16.7,34.1,18
			c30.6,3.1,56.8-21.3,56.8-51.3C358,51.1,344.7,52.6,333,64.8z"/>
	</g>
	<g id="overlay">
		<path class="st2" d="M278.4,28C278.4,28,278.4,28.1,278.4,28C278.4,28.1,278.4,28,278.4,28C278.4,28,278.4,28,278.4,28z"/>
		<path class="st3" d="M343.7,76.4c-24.4,26.3-46.9,20.4-57.6,11.5c-0.9-0.1-1.8-0.3-2.6-0.5c9.5,11.2,23.6,18.3,39.4,18.3
			c28.2,0,51.4-23.1,51.6-51.3C366.1,58.5,359.2,59.7,343.7,76.4z"/>
		<path class="st4" d="M319.9,77.6C319.9,77.7,319.8,77.7,319.9,77.6C319.8,77.7,319.9,77.6,319.9,77.6
			C319.9,77.6,319.9,77.6,319.9,77.6z"/>
		<g>
			<path class="st4" d="M372.1,53.8c-15.4-2.5-27.9-0.6-39.1,11.1c0,0-2.5,3.8-7.6,8.4c8.8-6,26.5-13.9,43.5,4
				c0.3-0.6,0.6-1.2,0.9-1.8c0.9-2.1,2.4-6,3.5-10.5c0.7-3.4,1.1-6.8,1.1-10.4C374.4,54.5,373.5,54.2,372.1,53.8z"/>
			<path class="st4" d="M329.1,68.4c-0.2,0.2-0.5,0.3-0.7,0.5C328.6,68.7,328.8,68.6,329.1,68.4z"/>
			<path class="st4" d="M326.8,70L326.8,70c0.2-0.2,0.5-0.3,0.8-0.5C327.3,69.6,327,69.8,326.8,70z"/>
			<path class="st4" d="M327.6,69.5c0.2-0.2,0.5-0.3,0.7-0.5C328.1,69.1,327.8,69.3,327.6,69.5z"/>
			<path class="st4" d="M329.8,67.8c-0.2,0.2-0.4,0.3-0.6,0.5C329.4,68.1,329.6,68,329.8,67.8z"/>
			<path class="st4" d="M331.9,66c0.1-0.1,0.2-0.2,0.3-0.3C332.1,65.8,332,65.9,331.9,66z"/>
			<path class="st4" d="M331.4,66.4c-0.2,0.1-0.3,0.3-0.5,0.4C331.1,66.7,331.3,66.6,331.4,66.4z"/>
			<path class="st4" d="M330.6,67.1c-0.2,0.2-0.4,0.3-0.6,0.5C330.3,67.4,330.5,67.3,330.6,67.1z"/>
		</g>
		<path class="st3" d="M314.8,73.9c-9.4,0-17.1-7.6-17.1-17.1c0-2.6,0.6-5,1.6-7.2c0.1-0.2,0.2-0.3,0.2-0.5c0.1-0.3,0.3-0.5,0.4-0.8
			c0.1-0.1,0.2-0.3,0.2-0.4c0.2-0.3,0.4-0.6,0.6-0.9c0-0.1,0.1-0.1,0.1-0.2c0.3-0.4,0.6-0.7,0.9-1.1c0.1-0.1,0.2-0.2,0.3-0.3
			c0.2-0.2,0.3-0.4,0.5-0.5c0.1-0.1,0.3-0.3,0.4-0.4c0.1-0.1,0.3-0.3,0.4-0.4c0.2-0.2,0.4-0.4,0.7-0.6c0.1-0.1,0.1-0.1,0.2-0.2
			c0,0,0,0,0,0c0.3-0.2,0.6-0.4,0.8-0.6c0,0,0.1,0,0.1-0.1l0,0c0.1,0,0.3,0,0.5,0c4.1-0.2,7.3-3.6,7.3-7.7c0-4-3.1-7.3-7-7.7
			c-0.1,0-0.2,0-0.2,0c-0.1,0-0.2,0-0.3,0c-0.1,0-0.2,0-0.3,0c-0.8,0-1.6,0.1-2.4,0.4c-0.7,0.2-1.3,0.4-2,0.7c0,0,0,0,0,0
			c0,0,0,0-0.1,0c-0.9,0.4-1.7,0.9-2.4,1.4c-7.1,4.7-11.5,13.1-11.5,22.7c0,14.8,10.5,27,25.2,27c0.3,0,0.5,0,0.8,0
			c-37.5,7.5-41.7-23.7-41.7-23.7c0,0.9,0.1,1.9,0.2,2.8c0,0.2,0,0.4,0.1,0.6c0.1,0.9,0.2,1.8,0.3,2.7c0,0.1,0,0.3,0.1,0.4
			c0.1,0.8,0.3,1.6,0.4,2.4c0,0.1,0.1,0.3,0.1,0.4c0.2,0.9,0.4,1.7,0.6,2.6c0.1,0.2,0.1,0.4,0.2,0.6c0.2,0.9,0.5,1.7,0.8,2.6
			c2,5.9,6.9,10.4,13,11.8c0.4,0.1,0.7,0.2,1.1,0.2c0,0,0,0,0.1,0c0.4,0.1,0.8,0.1,1.2,0.2c0.1,0,0.1,0,0.2,0
			c0.4,0.1,0.8,0.1,1.2,0.2c0.1,0,0.1,0,0.2,0c2.3,0.3,4.9,0.4,7.7,0.2c0,0,0,0,0,0c0.5,0,1.1-0.1,1.6-0.1c0.1,0,0.2,0,0.2,0
			c0.5-0.1,1.1-0.1,1.6-0.2c0.1,0,0.2,0,0.3,0c0.6-0.1,1.1-0.2,1.7-0.3c0,0,0.1,0,0.1,0c2.5-0.4,5.1-1.1,7.8-2c0.1,0,0.1,0,0.2-0.1
			c0.6-0.2,1.2-0.4,1.8-0.6c0.2-0.1,0.3-0.1,0.5-0.2c0.6-0.2,1.2-0.4,1.7-0.7c0.2-0.1,0.4-0.2,0.6-0.3c0.4-0.2,0.8-0.4,1.2-0.5
			c0.7-0.3,1.4-0.6,2.1-0.9c8.7-6,12.9-12.5,12.9-12.5C324.2,74.2,314.8,73.9,314.8,73.9z"/>
		<path class="st4" d="M327.6,19.2c1.7,2.5,5,9.2-2.3,13.4c-6.2,3.6-11.9-0.7-13.6-2c-2.1-3.2-6.2-3.3-6.2-3.3s-22.6-4.9-33.2,16.5
			h0c0,0,0,0,0-0.1c0,0,0-0.1,0-0.1c0-0.1,0-0.1,0-0.2c1.8-7.8,7.3-19.9,19.6-26.5c2.7-1.4,5.7-2.5,9.1-3.4c4-0.9,8.5-1.3,13.5-1
			C314.7,12.5,324.2,14.1,327.6,19.2z"/>
		<path class="st4" d="M336.8,23.5c1.2,5.1,5.6,7.4,9.3,6.7c6.6-1.2,7.1-7,5.6-12c-0.1-0.2-0.1-0.4-0.1-0.5
			c-0.7-2.4-1.6-3.9-1.6-3.9c-2-3.4-5-6-8.7-7.6l0,0c-4.4-1.9-10.8-3.7-18.5-3.7c-13.1,0-25.1,4.9-34.2,13c6.7-5.4,32.4-12,43.6-0.2
			C334.9,18.3,336.1,20.6,336.8,23.5z"/>
		<path class="st4" d="M361.3,25.3c-0.7-8.4-8.8-10.5-9.3-10.6c0.6,1.2,2,4.2,2.1,8.5c0,0.8,0,1.6-0.1,2.3c0.1,1.2,0.3,4.7,4.4,4.5
			C360.3,29.9,361.3,27.5,361.3,25.3z"/>
	</g>
	<g>
		<path class="st5" d="M2.3,32.1h41l-0.1,10.7H28.5v46.3h-11V42.8H2.2L2.3,32.1z"/>
		<path class="st5" d="M48.1,30.7l10.5-2.9v23.4c2.1-1.8,4.1-3.1,6.2-4c2.1-0.9,4.2-1.3,6.3-1.3c4.2,0,7.7,1.4,10.6,4.3
			c2.5,2.5,3.7,6.2,3.7,11v27.8H75V70.6c0-4.9-0.2-8.2-0.7-9.9c-0.5-1.7-1.3-3-2.4-3.9c-1.1-0.9-2.5-1.3-4.2-1.3
			c-2.1,0-4,0.7-5.5,2.1c-1.5,1.4-2.6,3.4-3.2,5.8c-0.3,1.3-0.5,4.2-0.5,8.7v16.9H48.1V30.7z"/>
		<path class="st5" d="M137.9,71.1h-34c0.5,3,1.8,5.4,3.9,7.1c2.1,1.8,4.8,2.7,8.1,2.7c3.9,0,7.3-1.4,10.2-4.1l8.9,4.2
			c-2.2,3.1-4.9,5.5-8,7c-3.1,1.5-6.8,2.3-11,2.3c-6.6,0-12-2.1-16.1-6.2c-4.2-4.2-6.2-9.4-6.2-15.7c0-6.4,2.1-11.8,6.2-16
			c4.1-4.2,9.3-6.4,15.6-6.4c6.6,0,12,2.1,16.2,6.4c4.2,4.2,6.2,9.9,6.2,16.8L137.9,71.1z M127.3,62.8c-0.7-2.3-2.1-4.3-4.1-5.7
			c-2.1-1.5-4.4-2.2-7.2-2.2c-2.9,0-5.5,0.8-7.8,2.5c-1.4,1-2.7,2.9-3.9,5.5H127.3z"/>
		<path class="st5" d="M146.3,50.5l10.6-3.5v4.8c1.8-2,3.8-3.5,6-4.5c2.2-1,4.6-1.5,7.2-1.5c2.6,0,5,0.6,7.1,1.9
			c2.1,1.3,3.8,3.2,5.1,5.7c1.7-2.5,3.7-4.4,6.2-5.7c2.4-1.3,5.1-1.9,8-1.9c3,0,5.6,0.7,7.9,2.1c2.3,1.4,3.9,3.2,4.9,5.5
			c1,2.2,1.5,5.9,1.5,11v24.7h-10.6V67.7c0-4.8-0.6-8-1.8-9.7c-1.2-1.7-3-2.5-5.3-2.5c-1.8,0-3.4,0.5-4.9,1.6
			c-1.4,1-2.5,2.5-3.2,4.3c-0.7,1.8-1,4.7-1,8.8v19h-10.6V68.7c0-3.8-0.3-6.5-0.8-8.2c-0.6-1.7-1.4-2.9-2.5-3.8
			c-1.1-0.8-2.5-1.2-4-1.2c-1.8,0-3.4,0.5-4.8,1.6c-1.4,1-2.5,2.5-3.2,4.4s-1.1,4.9-1.1,8.9v18.7h-10.6V50.5z"/>
		<path class="st5" d="M263.1,71.1h-34c0.5,3,1.8,5.4,3.9,7.1c2.1,1.8,4.8,2.7,8.1,2.7c3.9,0,7.3-1.4,10.2-4.1l8.9,4.2
			c-2.2,3.1-4.9,5.5-8,7c-3.1,1.5-6.8,2.3-11,2.3c-6.6,0-12-2.1-16.1-6.2c-4.2-4.2-6.2-9.4-6.2-15.7c0-6.4,2.1-11.8,6.2-16
			c4.1-4.2,9.3-6.4,15.6-6.4c6.6,0,12,2.1,16.2,6.4c4.2,4.2,6.2,9.9,6.2,16.8L263.1,71.1z M252.6,62.8c-0.7-2.3-2.1-4.3-4.1-5.7
			c-2.1-1.5-4.4-2.2-7.2-2.2c-2.9,0-5.5,0.8-7.8,2.5c-1.4,1-2.7,2.9-3.9,5.5H252.6z"/>
	</g>
	<g>
		<path class="st5" d="M422.7,55.5l-8.8,4.8c-1.7-1.7-3.3-2.9-4.9-3.6c-1.6-0.7-3.5-1-5.7-1c-4,0-7.1,1.2-9.6,3.5
			c-2.4,2.4-3.7,5.4-3.7,9.1c0,3.6,1.2,6.5,3.5,8.8c2.4,2.3,5.4,3.4,9.3,3.4c4.7,0,8.4-1.6,11-4.8l8.3,5.7
			c-4.5,5.9-10.9,8.8-19.1,8.8c-7.4,0-13.2-2.2-17.4-6.6c-4.2-4.4-6.3-9.5-6.3-15.4c0-4.1,1-7.8,3.1-11.3c2-3.4,4.9-6.1,8.5-8.1
			c3.7-2,7.7-2.9,12.3-2.9c4.2,0,7.9,0.8,11.3,2.5C417.9,50,420.6,52.4,422.7,55.5z"/>
		<path class="st5" d="M470.8,71.1h-34c0.5,3,1.8,5.4,3.9,7.1c2.1,1.8,4.8,2.7,8.1,2.7c3.9,0,7.3-1.4,10.2-4.1l8.9,4.2
			c-2.2,3.1-4.9,5.5-8,7s-6.8,2.3-11,2.3c-6.6,0-12-2.1-16.1-6.2c-4.2-4.2-6.2-9.4-6.2-15.7c0-6.4,2.1-11.8,6.2-16
			c4.1-4.2,9.3-6.4,15.6-6.4c6.6,0,12,2.1,16.2,6.4c4.2,4.2,6.2,9.9,6.2,16.8L470.8,71.1z M460.2,62.8c-0.7-2.3-2.1-4.3-4.1-5.7
			c-2.1-1.5-4.4-2.2-7.2-2.2c-2.9,0-5.5,0.8-7.8,2.5c-1.4,1-2.7,2.9-3.9,5.5H460.2z"/>
		<path class="st5" d="M510.4,47H521v42.1h-10.6v-4.5c-2.1,2-4.1,3.4-6.2,4.2c-2.1,0.9-4.3,1.3-6.7,1.3c-5.4,0-10.1-2.1-14.1-6.3
			c-4-4.2-6-9.5-6-15.7c0-6.5,1.9-11.8,5.8-16c3.8-4.2,8.5-6.2,14-6.2c2.5,0,4.9,0.5,7.1,1.4c2.2,1,4.3,2.4,6.1,4.3V47z M499.3,55.6
			c-3.3,0-6,1.2-8.1,3.5c-2.2,2.3-3.2,5.3-3.2,8.9c0,3.6,1.1,6.6,3.3,9c2.2,2.3,4.9,3.5,8.1,3.5c3.3,0,6.1-1.2,8.3-3.5
			c2.2-2.3,3.3-5.3,3.3-9.1c0-3.7-1.1-6.6-3.3-8.9C505.4,56.8,502.7,55.6,499.3,55.6z"/>
		<path class="st5" d="M531.7,49.7l10.6-2.8v4.3c2.4-2,4.6-3.4,6.5-4.2s3.9-1.2,6-1.2c4.2,0,7.7,1.5,10.6,4.4
			c2.4,2.5,3.7,6.1,3.7,11v27.8h-10.5V70.6c0-5-0.2-8.4-0.7-10c-0.4-1.6-1.2-2.9-2.4-3.8c-1.1-0.9-2.5-1.3-4.2-1.3
			c-2.1,0-4,0.7-5.5,2.1c-1.5,1.4-2.6,3.4-3.2,5.9c-0.3,1.3-0.5,4.2-0.5,8.5v16.9h-10.6V49.7z"/>
	</g>
	<path class="st6" d="M378.1,96.4c0,1.2-0.3,2.3-0.9,3.3c-0.6,1-1.4,1.8-2.4,2.4c-1,0.6-2.1,0.9-3.3,0.9c-1.2,0-2.3-0.3-3.3-0.9
		c-1-0.6-1.8-1.4-2.4-2.4c-0.6-1-0.9-2.1-0.9-3.3c0-1.2,0.3-2.3,0.9-3.3c0.6-1,1.4-1.8,2.4-2.4c1-0.6,2.1-0.9,3.3-0.9
		c1.2,0,2.3,0.3,3.3,0.9c1,0.6,1.8,1.4,2.4,2.4C377.8,94.1,378.1,95.2,378.1,96.4 M376.7,96.4c0-1.5-0.5-2.7-1.5-3.7
		c-1-1-2.3-1.5-3.7-1.5c-1.5,0-2.7,0.5-3.7,1.5c-1,1-1.5,2.3-1.5,3.7c0,0.9,0.2,1.8,0.7,2.6c0.5,0.8,1.1,1.4,1.9,1.9
		c0.8,0.5,1.7,0.7,2.6,0.7c0.9,0,1.8-0.2,2.6-0.7c0.8-0.5,1.5-1.1,1.9-1.9C376.5,98.2,376.7,97.3,376.7,96.4 M368.7,92.8h3.2
		c0.7,0,1.2,0.1,1.5,0.2c0.3,0.1,0.6,0.4,0.8,0.7c0.2,0.3,0.3,0.7,0.3,1.2c0,0.4-0.1,0.7-0.2,0.9c-0.1,0.2-0.3,0.5-0.7,0.7
		c0.3,0.2,0.4,0.3,0.5,0.5c0.1,0.2,0.2,0.5,0.2,1c0,0.9,0.1,1.4,0.1,1.6c0,0.1,0.1,0.3,0.3,0.4h-1.8c-0.1-0.2-0.1-0.4-0.2-0.5
		c0-0.1,0-0.4-0.1-0.7c0-0.6,0-1-0.1-1.2c0-0.2-0.1-0.3-0.3-0.3c-0.1-0.1-0.4-0.1-0.8-0.1h-1.3v2.8h-1.6V92.8z M370.3,94.2v1.7h1.3
		c0.5,0,0.9-0.1,1-0.2c0.2-0.1,0.3-0.4,0.3-0.7c0-0.3-0.1-0.5-0.3-0.7c-0.2-0.1-0.5-0.2-1-0.2H370.3z"/>
	<g class="st7">
		<path class="st8" d="M77.2,97v3.3h3.6v0.8h-3.6v4.2h-0.9v-9.1h4.6V97H77.2z"/>
		<path class="st8" d="M92.6,104.1c-0.9,0.9-2.1,1.4-3.4,1.4c-1.3,0-2.4-0.5-3.4-1.4c-1-0.9-1.5-2-1.5-3.3c0-1.3,0.5-2.5,1.4-3.4
			c0.9-0.9,2.1-1.4,3.4-1.4c1.3,0,2.4,0.5,3.4,1.4c1,0.9,1.4,2,1.4,3.3S93.5,103.2,92.6,104.1z M92,98c-0.8-0.8-1.7-1.1-2.8-1.1
			c-1.1,0-2,0.4-2.8,1.2c-0.8,0.8-1.1,1.7-1.1,2.8c0,1.1,0.4,2,1.2,2.7c0.8,0.8,1.7,1.1,2.7,1.1c1.1,0,2-0.4,2.8-1.1
			c0.8-0.8,1.2-1.7,1.2-2.7S92.7,98.8,92,98z"/>
		<path class="st8" d="M98,105.3v-9.1h0.9v8.3h3.8v0.8H98z"/>
		<path class="st8" d="M106.2,105.3v-9.1h0.9v8.3h3.8v0.8H106.2z"/>
		<path class="st8" d="M122.1,104.1c-0.9,0.9-2.1,1.4-3.4,1.4c-1.3,0-2.4-0.5-3.4-1.4c-1-0.9-1.5-2-1.5-3.3c0-1.3,0.5-2.5,1.4-3.4
			c0.9-0.9,2.1-1.4,3.4-1.4c1.3,0,2.4,0.5,3.4,1.4c1,0.9,1.4,2,1.4,3.3S123,103.2,122.1,104.1z M121.4,98c-0.8-0.8-1.7-1.1-2.8-1.1
			c-1.1,0-2,0.4-2.8,1.2c-0.8,0.8-1.1,1.7-1.1,2.8c0,1.1,0.4,2,1.2,2.7c0.8,0.8,1.7,1.1,2.7,1.1c1.1,0,2-0.4,2.8-1.1
			c0.8-0.8,1.2-1.7,1.2-2.7S122.2,98.8,121.4,98z"/>
		<path class="st8" d="M135.6,105.3h-1.2l-2-7.5h0l-2,7.5h-1.2l-2.6-9.1h0.9l2.2,7.9h0l2.2-7.9h0.8l2.2,7.9h0l2.2-7.9h0.9
			L135.6,105.3z"/>
		<path class="st8" d="M150.8,102.3v3h-0.9v-3l-3.2-6.1h1l2.6,5.1l2.7-5.1h1L150.8,102.3z"/>
		<path class="st8" d="M164.7,104.1c-0.9,0.9-2.1,1.4-3.4,1.4c-1.3,0-2.4-0.5-3.4-1.4c-1-0.9-1.5-2-1.5-3.3c0-1.3,0.5-2.5,1.4-3.4
			c0.9-0.9,2.1-1.4,3.4-1.4c1.3,0,2.4,0.5,3.4,1.4c1,0.9,1.4,2,1.4,3.3S165.7,103.2,164.7,104.1z M164.1,98
			c-0.8-0.8-1.7-1.1-2.8-1.1c-1.1,0-2,0.4-2.8,1.2c-0.8,0.8-1.1,1.7-1.1,2.8c0,1.1,0.4,2,1.2,2.7c0.8,0.8,1.7,1.1,2.7,1.1
			c1.1,0,2-0.4,2.8-1.1c0.8-0.8,1.2-1.7,1.2-2.7S164.9,98.8,164.1,98z"/>
		<path class="st8" d="M176.3,101.9c0,0.3,0,0.7-0.1,1c-0.1,0.4-0.2,0.7-0.3,0.9c-0.5,1.1-1.5,1.7-2.8,1.7s-2.2-0.6-2.8-1.7
			c-0.1-0.3-0.2-0.6-0.3-0.9c-0.1-0.3-0.1-0.6-0.1-1v-5.7h0.9v5.7c0,0.3,0,0.6,0.1,0.8c0.1,0.3,0.1,0.6,0.2,0.8
			c0.4,0.7,1,1.1,1.9,1.1s1.5-0.4,1.9-1.1c0.1-0.2,0.2-0.5,0.2-0.8c0-0.3,0.1-0.5,0.1-0.8v-5.7h0.9V101.9z"/>
		<path class="st8" d="M186,101.1c-0.5,0.5-1.2,0.8-1.9,0.8l2.6,3.4h-1.1l-3.1-4.1l1,0c0.4,0,0.7-0.1,1-0.1c1-0.3,1.5-0.9,1.5-1.9
			c0-0.8-0.3-1.4-1-1.8c-0.3-0.1-0.5-0.2-0.9-0.3c-0.2,0-0.5-0.1-0.9-0.1h-1.6v8.3h-0.9v-9.1h2.3c0.2,0,0.4,0,0.6,0
			c0.2,0,0.4,0,0.6,0c0.4,0.1,0.8,0.2,1.1,0.3c1.1,0.5,1.6,1.4,1.6,2.6C186.8,99.9,186.5,100.5,186,101.1z"/>
		<path class="st8" d="M201.3,101.1c-0.3,0.2-0.7,0.4-1.1,0.4c-0.2,0-0.4,0.1-0.6,0.1c-0.2,0-0.4,0-0.6,0h-1.6v3.7h-0.9v-9.1h2.5
			c0.2,0,0.4,0,0.6,0c0.2,0,0.4,0,0.6,0.1c0.4,0.1,0.8,0.2,1.1,0.4c0.8,0.5,1.1,1.2,1.1,2.2C202.5,99.9,202.1,100.6,201.3,101.1z
			 M200.5,97.3c-0.2-0.1-0.5-0.2-0.8-0.2l-0.4,0h-2v3.8h2l0.4,0c0.3,0,0.5-0.1,0.8-0.2c0.7-0.3,1.1-0.9,1.1-1.7
			C201.6,98.1,201.2,97.6,200.5,97.3z"/>
		<path class="st8" d="M212.6,105.3l-1.3-3.1H207l-1.3,3.1h-1l3.9-9.1h1l3.9,9.1H212.6z M209.2,97.2l-1.8,4.2h3.5L209.2,97.2z"/>
		<path class="st8" d="M221,104.7c-0.5,0.5-1.2,0.8-1.9,0.8c-0.8,0-1.5-0.2-2-0.7c-0.5-0.5-0.8-1.2-0.8-2h0.9
			c0.1,1.3,0.7,1.9,1.9,1.9c0.5,0,0.9-0.2,1.3-0.5c0.4-0.4,0.5-0.8,0.5-1.3c0-0.5-0.2-1-0.6-1.3c-0.2-0.1-0.4-0.3-0.6-0.4
			c-0.2-0.1-0.4-0.2-0.7-0.3c-0.4-0.1-0.7-0.2-0.9-0.3c-0.3-0.1-0.6-0.3-0.8-0.4c-0.5-0.4-0.7-0.9-0.7-1.7c0-0.7,0.3-1.3,0.8-1.8
			c0.5-0.5,1.1-0.7,1.8-0.7c0.7,0,1.3,0.2,1.8,0.7c0.5,0.5,0.7,1.1,0.7,1.8h-0.9c0-0.4-0.2-0.8-0.5-1.2c-0.3-0.3-0.7-0.5-1.1-0.5
			c-0.5,0-0.9,0.2-1.2,0.5c-0.3,0.3-0.5,0.7-0.5,1.1c0,0.5,0.2,0.9,0.7,1.2c0.2,0.1,0.4,0.2,0.7,0.3l0.7,0.2
			c0.7,0.2,1.2,0.5,1.6,0.9c0.4,0.5,0.6,1,0.6,1.7C221.8,103.6,221.5,104.2,221,104.7z"/>
		<path class="st8" d="M229.6,104.7c-0.5,0.5-1.2,0.8-1.9,0.8c-0.8,0-1.5-0.2-2-0.7c-0.5-0.5-0.8-1.2-0.8-2h0.9
			c0.1,1.3,0.7,1.9,1.9,1.9c0.5,0,0.9-0.2,1.3-0.5c0.4-0.4,0.5-0.8,0.5-1.3c0-0.5-0.2-1-0.6-1.3c-0.2-0.1-0.4-0.3-0.6-0.4
			c-0.2-0.1-0.4-0.2-0.7-0.3c-0.4-0.1-0.7-0.2-0.9-0.3c-0.3-0.1-0.6-0.3-0.8-0.4c-0.5-0.4-0.7-0.9-0.7-1.7c0-0.7,0.3-1.3,0.8-1.8
			c0.5-0.5,1.1-0.7,1.8-0.7c0.7,0,1.3,0.2,1.8,0.7c0.5,0.5,0.7,1.1,0.7,1.8h-0.9c0-0.4-0.2-0.8-0.5-1.2c-0.3-0.3-0.7-0.5-1.1-0.5
			c-0.5,0-0.9,0.2-1.2,0.5c-0.3,0.3-0.5,0.7-0.5,1.1c0,0.5,0.2,0.9,0.7,1.2c0.2,0.1,0.4,0.2,0.7,0.3l0.7,0.2
			c0.7,0.2,1.2,0.5,1.6,0.9c0.4,0.5,0.6,1,0.6,1.7C230.4,103.6,230.1,104.2,229.6,104.7z"/>
		<path class="st8" d="M234.1,105.3v-9.1h0.9v9.1H234.1z"/>
		<path class="st8" d="M247.2,104.1c-0.9,0.9-2.1,1.4-3.4,1.4c-1.3,0-2.4-0.5-3.4-1.4c-1-0.9-1.5-2-1.5-3.3c0-1.3,0.5-2.5,1.4-3.4
			c0.9-0.9,2.1-1.4,3.4-1.4c1.3,0,2.4,0.5,3.4,1.4c1,0.9,1.4,2,1.4,3.3S248.1,103.2,247.2,104.1z M246.5,98
			c-0.8-0.8-1.7-1.1-2.8-1.1c-1.1,0-2,0.4-2.8,1.2c-0.8,0.8-1.1,1.7-1.1,2.8c0,1.1,0.4,2,1.2,2.7c0.8,0.8,1.7,1.1,2.7,1.1
			c1.1,0,2-0.4,2.8-1.1c0.8-0.8,1.2-1.7,1.2-2.7S247.3,98.8,246.5,98z"/>
		<path class="st8" d="M258.9,105.3l-5.4-8h0v8h-0.9v-9.1h1.2l5.1,7.6h0v-7.6h0.9v9.1H258.9z"/>
	</g>
</g>
</svg>
