<?xml version="1.0" encoding="utf-8"?>
<!-- Generator: Adobe Illustrator 24.0.0, SVG Export Plug-In . SVG Version: 6.00 Build 0)  -->
<svg version="1.1" id="Layer_1" xmlns="http://www.w3.org/2000/svg" xmlns:xlink="http://www.w3.org/1999/xlink" x="0px" y="0px"
	 viewBox="0 0 570.2 116.6" style="enable-background:new 0 0 570.2 116.6;" xml:space="preserve">
<style type="text/css">
	.st0{fill:#EEC57F;}
	.st1{fill:#2D2D2D;}
	.st2{fill:#6B6B6B;}
</style>
<g>
	<g>
		<path class="st0" d="M59.8,7.9c-1.5-0.9-3.9-0.9-5.4,0L4.9,36.4c-1.5,0.9-2.7,3-2.7,4.7v57.1c0,1.7,1.2,2.4,2.7,1.6l49.4-28.6
			c1.5-0.9,3.9-0.9,5.4,0l49.5,28.6c1.5,0.9,2.7,0.2,2.7-1.6V41.1c0-1.7-1.2-3.8-2.7-4.7L59.8,7.9z"/>
		<path class="st0" d="M59.8,87.1c-1.5-0.9-3.9-0.9-5.4,0l-22,12.7c-1.5,0.9-1.5,2.3,0,3.1l8.3,4.8c1.5,0.9,3.9,0.9,5.4,0l8.3-4.8
			c1.5-0.9,3.9-0.9,5.4,0l8.3,4.8c1.5,0.9,3.9,0.9,5.4,0l8.2-4.8c1.5-0.9,1.5-2.3,0-3.1L59.8,87.1z"/>
	</g>
	<g>
		<g>
			<path class="st1" d="M138.6,78.3v-40c0-0.8,0.3-1.5,0.8-2.1c0.6-0.6,1.2-0.9,2-0.9h34.3c0.8,0,1.4,0.3,2,0.9
				c0.5,0.6,0.8,1.3,0.8,2.2v3c0,0.8-0.3,1.5-0.8,2.1c-0.5,0.6-1.2,0.9-2,0.9h-25.9v9.3h22.3c0.8,0,1.4,0.3,2,0.9
				c0.5,0.6,0.8,1.3,0.8,2.1v3c0,0.8-0.3,1.6-0.8,2.1s-1.2,0.9-2,0.9h-22.3v9.5h25.9c0.8,0,1.4,0.3,1.9,0.9c0.5,0.6,0.8,1.3,0.8,2.1
				v3.1c0,0.8-0.3,1.5-0.8,2.1c-0.6,0.6-1.2,0.9-2,0.9h-34.2c-0.8,0-1.4-0.3-2-0.9C138.9,80,138.6,79.2,138.6,78.3z"/>
			<path class="st1" d="M185.8,78.4v-40c0-0.8,0.3-1.6,0.8-2.2c0.5-0.6,1.2-0.9,2-0.9h8.8c0.7,0,1.4,0.3,2.2,0.9
				c0.8,0.6,1.4,1.3,1.9,2.2l18.2,29.9V38.3c0-0.8,0.3-1.5,0.8-2.1c0.5-0.6,1.2-0.9,1.9-0.9h4.9c0.7,0,1.4,0.3,1.9,0.9
				c0.5,0.6,0.8,1.3,0.8,2.2v40c0,0.8-0.3,1.5-0.8,2.1c-0.5,0.6-1.2,0.9-2,0.9h-9.8c-0.8,0-1.5-0.3-2.3-0.9
				c-0.8-0.6-1.4-1.3-1.9-2.1L197,50.8v27.6c0,0.8-0.3,1.5-0.8,2.1c-0.6,0.6-1.2,0.9-2,0.9h-5.4c-0.8,0-1.5-0.3-2.1-0.9
				C186.1,80,185.8,79.2,185.8,78.4z"/>
			<path class="st1" d="M296.3,75.9c-4.1-3.7-6.1-9.5-6.1-17.5c0-8,2-13.9,6.1-17.5c4.1-3.7,10-5.5,17.9-5.5
				c7.8,0,13.8,1.8,17.9,5.5c4.1,3.7,6.1,9.5,6.1,17.5c0,8-2,13.9-6.1,17.5c-4.1,3.7-10,5.5-17.9,5.5
				C306.3,81.4,300.4,79.6,296.3,75.9z M304.4,47.4c-2,2.5-3,6.1-3,11s1,8.6,3,11c2,2.5,5.3,3.7,9.7,3.7c4.5,0,7.7-1.2,9.7-3.7
				c2-2.5,3-6.1,3-11s-1-8.6-3-11c-2-2.5-5.2-3.7-9.7-3.7C309.7,43.6,306.4,44.9,304.4,47.4z"/>
			<g>
				<g>
					<path class="st1" d="M283.2,67.5c-0.3,4.3-1.9,7.7-5.4,10.2c-3.5,2.5-7.4,3.7-11.9,3.7h-7.3c-7.4,0-12.9-1.9-16.6-5.6
						c-3.7-3.8-5.5-9.6-5.5-17.4c0-7.8,1.8-13.6,5.6-17.4c3.7-3.8,9.3-5.6,16.7-5.6h6.7c4.5,0,8.6,1.3,12,3.8
						c3.5,2.5,5.2,5.9,5.2,10.3c0,1.2,0,2.4-0.7,2.9c-0.7,0.5-1.8,0.6-2.5,0.6H276c-1.9,0-2.9-0.3-3.5-2.8c-1-3.7-4.8-5.7-8.2-5.7
						h-5.3c-4.3,0-7.3,1-8.8,3c-1.6,2-2.3,5.7-2.3,11c0,5.4,0.8,9.1,2.3,11.1c1.5,2,4.5,3,8.8,3h5.9c3.5,0.1,7.8-1.1,7.9-5
						c0-1.1,0.1-1.8,0.1-2.4h-10.3c-0.5,0-1.4-0.2-1.7-0.5c-0.3-0.4-0.4-0.8-0.4-1.4v-3.8c0-0.6,0.2-1,0.5-1.4
						c0.3-0.4,1.1-0.6,1.6-0.6h19.3c0.5,0,0.9,0.2,1.2,0.6c0.3,0.4,0.4,0.8,0.4,1.4v3.2C283.4,64.4,283.3,66.8,283.2,67.5z"/>
				</g>
			</g>
		</g>
	</g>
	<g>
		<path class="st2" d="M343.3,42.7v-5.8h7.6V24.6h6.3v12.3h11.3v5.8h-11.3v26.6c0,2.2,0.5,3.8,1.4,4.7c0.9,0.9,2.6,1.3,4.9,1.3
			c1.8,0,3.5-0.3,5-1v5.9c-1.9,0.7-3.7,1-5.6,1c-0.1,0-0.2,0-0.2,0c-1.2,0-2.3-0.1-3.4-0.4c-1.1-0.3-2.4-0.8-3.8-1.5
			c-1.4-0.8-2.5-2-3.4-3.8c-0.9-1.8-1.3-4-1.3-6.6V42.7H343.3z"/>
		<path class="st2" d="M373.9,80.6V20.3h6.3v18.6c4.4-1.9,8.8-2.8,13.2-2.8c5.4,0,9.5,1.6,12.4,4.8c2.9,3.2,4.4,7.8,4.4,13.7v25.9
			h-6.3V54.7c0-8.2-3.7-12.3-11.2-12.3c-4.1,0-8.2,0.9-12.5,2.6v35.5H373.9z"/>
		<path class="st2" d="M416.1,59.3c0-0.1,0-0.2,0-0.3c0-0.1,0-0.3,0-0.3c0-15,6.4-22.5,19.1-22.5c2.7,0,5.1,0.4,7.2,1.3
			s3.9,1.8,5.2,3c1.3,1.1,2.4,2.6,3.4,4.5c1,1.8,1.6,3.4,2.1,4.7c0.4,1.3,0.7,2.8,1,4.7c0.2,1.8,0.3,2.9,0.3,3.3v1.9l-0.2,3.1h-31.7
			c0.4,4.4,1.7,7.6,4,9.5c2.3,2,5.7,3,10.1,3c6.3,0,11.3-1.1,14.9-3.2v6.5c-4.2,2-9.3,3-15.3,3c-0.1,0-0.2,0-0.3,0
			c-2.6,0-4.9-0.3-7-0.9c-2.1-0.6-4.2-1.7-6.3-3.2c-2.1-1.5-3.7-3.8-4.8-6.8C416.6,67.3,416.1,63.6,416.1,59.3z M422.4,56.9H448
			c0-1-0.1-2.1-0.4-3.3c-0.2-1.2-0.7-2.8-1.5-4.7c-0.7-1.9-2-3.5-3.9-4.8c-1.9-1.3-4.2-1.9-7-1.9c-4.3,0-7.5,1.1-9.4,3.4
			C423.8,47.7,422.7,51.5,422.4,56.9z"/>
		<path class="st2" d="M460.9,80.6V40.3c5.6-2.8,11.4-4.2,17.5-4.2c4.8,0,8.6,1.2,11.5,3.6c5.6-2.4,11-3.6,16.2-3.6
			c5.3,0,9.4,1.4,12.3,4.2s4.4,6.7,4.4,11.8v28.4h-6.3V52.1c0-1.2-0.1-2.3-0.3-3.3c-0.2-1-0.7-2-1.4-3.1c-0.7-1.1-1.8-1.9-3.4-2.5
			c-1.5-0.6-3.5-0.9-5.7-0.9c-3.7,0-7.7,0.7-12.1,2.2c0.9,2.1,1.4,4.6,1.4,7.5v28.4h-6.3V52.1c0-1.3-0.1-2.4-0.4-3.4
			c-0.2-1-0.7-2-1.4-3c-0.7-1.1-1.8-1.9-3.4-2.5c-1.6-0.6-3.6-0.9-5.9-0.9c-3.6,0-7,0.5-10.4,1.6v36.6H460.9z"/>
		<path class="st2" d="M529.6,59.3c0-0.1,0-0.2,0-0.3c0-0.1,0-0.3,0-0.3c0-15,6.4-22.5,19.1-22.5c2.7,0,5.1,0.4,7.2,1.3
			s3.9,1.8,5.2,3c1.3,1.1,2.4,2.6,3.4,4.5c1,1.8,1.6,3.4,2.1,4.7c0.4,1.3,0.7,2.8,1,4.7c0.2,1.8,0.3,2.9,0.3,3.3v1.9l-0.2,3.1h-31.7
			c0.4,4.4,1.7,7.6,4,9.5s5.7,3,10.1,3c6.3,0,11.3-1.1,14.9-3.2v6.5c-4.2,2-9.3,3-15.3,3c-0.1,0-0.2,0-0.3,0c-2.6,0-4.9-0.3-7-0.9
			c-2.1-0.6-4.2-1.7-6.3-3.2c-2.1-1.5-3.7-3.8-4.8-6.8C530.1,67.3,529.6,63.6,529.6,59.3z M535.9,56.9h25.6c0-1-0.1-2.1-0.4-3.3
			c-0.2-1.2-0.7-2.8-1.5-4.7c-0.7-1.9-2-3.5-3.9-4.8c-1.9-1.3-4.2-1.9-7-1.9c-4.3,0-7.5,1.1-9.4,3.4
			C537.3,47.7,536.2,51.5,535.9,56.9z"/>
	</g>
	<g>
		<path class="st2" d="M140.1,101.5V90.2h7v1.2h-5.7v3.9h5v1.2h-5v5.1H140.1z"/>
		<path class="st2" d="M158.8,95.9c0-3.9,1.8-5.8,5.3-5.8c3.5,0,5.3,1.9,5.3,5.8c0,3.9-1.8,5.8-5.3,5.8
			C160.6,101.7,158.8,99.7,158.8,95.9z M161,92.3c-0.6,0.7-1,1.9-1,3.5c0,1.6,0.3,2.8,1,3.5c0.6,0.7,1.7,1.1,3.1,1.1
			c1.4,0,2.4-0.4,3.1-1.1s1-1.9,1-3.5c0-1.6-0.3-2.8-1-3.5s-1.7-1.1-3.1-1.1C162.7,91.2,161.7,91.6,161,92.3z"/>
		<path class="st2" d="M182,101.5V90.2h1.2v10.2h5.8v1.2H182z"/>
		<path class="st2" d="M201.1,101.5V90.2h1.2v10.2h5.8v1.2H201.1z"/>
		<path class="st2" d="M219.7,95.9c0-3.9,1.8-5.8,5.3-5.8c3.5,0,5.3,1.9,5.3,5.8c0,3.9-1.8,5.8-5.3,5.8
			C221.5,101.7,219.7,99.7,219.7,95.9z M221.9,92.3c-0.6,0.7-1,1.9-1,3.5c0,1.6,0.3,2.8,1,3.5c0.6,0.7,1.7,1.1,3.1,1.1
			c1.4,0,2.4-0.4,3.1-1.1s1-1.9,1-3.5c0-1.6-0.3-2.8-1-3.5s-1.7-1.1-3.1-1.1C223.6,91.2,222.5,91.6,221.9,92.3z"/>
		<path class="st2" d="M241.5,90.2h1.2l3,9.6l3-9.6h1.2l2.9,9.4l3-9.4h1.2l-3.7,11.3h-1.1l-3-9.3l-3,9.3h-1.2L241.5,90.2z"/>
		<path class="st2" d="M283.8,90.2h1.5l3.4,4.9l3.4-4.9h1.5l-4.2,6.1v5.2h-1.2v-5.2L283.8,90.2z"/>
		<path class="st2" d="M304.5,95.9c0-3.9,1.8-5.8,5.3-5.8c3.5,0,5.3,1.9,5.3,5.8c0,3.9-1.8,5.8-5.3,5.8
			C306.3,101.7,304.5,99.7,304.5,95.9z M306.7,92.3c-0.6,0.7-1,1.9-1,3.5c0,1.6,0.3,2.8,1,3.5c0.6,0.7,1.7,1.1,3.1,1.1
			c1.4,0,2.4-0.4,3.1-1.1s1-1.9,1-3.5c0-1.6-0.3-2.8-1-3.5s-1.7-1.1-3.1-1.1C308.4,91.2,307.3,91.6,306.7,92.3z"/>
		<path class="st2" d="M327.6,96.9v-6.7h1.2V97c0,2.4,1.1,3.6,3.4,3.6c2.3,0,3.4-1.2,3.4-3.6v-6.8h1.2v6.7c0,1.6-0.4,2.7-1.2,3.6
			c-0.8,0.8-1.9,1.2-3.4,1.2s-2.6-0.4-3.4-1.2C328,99.6,327.6,98.4,327.6,96.9z"/>
		<path class="st2" d="M349.9,101.5V90.2h4.2c1.2,0,2.2,0.3,2.8,0.8c0.7,0.6,1,1.4,1,2.5c0,0.5-0.1,0.9-0.2,1.3
			c-0.2,0.4-0.3,0.7-0.5,0.9c-0.2,0.2-0.4,0.4-0.7,0.6c-0.3,0.2-0.5,0.3-0.7,0.3c-0.2,0.1-0.3,0.1-0.5,0.1l3.1,4.8H357l-3-4.6h-2.9
			v4.6H349.9z M351.1,95.8h2.9c0.6,0,1-0.1,1.4-0.2c0.4-0.1,0.7-0.3,0.8-0.5c0.2-0.2,0.3-0.5,0.3-0.7c0.1-0.2,0.1-0.5,0.1-0.8
			s0-0.6-0.1-0.8c-0.1-0.2-0.2-0.5-0.3-0.7c-0.2-0.2-0.4-0.4-0.8-0.5c-0.4-0.1-0.9-0.2-1.4-0.2h-2.9V95.8z"/>
		<path class="st2" d="M386.6,101.5V90.2h4c1.3,0,2.2,0.3,2.9,0.9c0.7,0.6,1,1.5,1,2.6c0,1.1-0.3,2-1,2.6c-0.7,0.6-1.6,0.9-2.9,0.9
			h-2.8v4.3H386.6z M387.8,96h2.7c0.6,0,1.1-0.1,1.5-0.2s0.7-0.3,0.9-0.6s0.3-0.5,0.4-0.7c0.1-0.2,0.1-0.5,0.1-0.8
			c0-0.3,0-0.6-0.1-0.8c-0.1-0.2-0.2-0.5-0.4-0.7s-0.5-0.4-0.9-0.6s-0.9-0.2-1.5-0.2h-2.7V96z"/>
		<path class="st2" d="M405.1,101.5l4.5-11.3h1.2l4.5,11.3h-1.3l-1.4-3.6h-4.9l-1.4,3.6H405.1z M408.3,96.8h4l-2-5.2L408.3,96.8z"/>
		<path class="st2" d="M427.1,93.2c0-0.9,0.3-1.6,1-2.2s1.6-0.9,3-0.9c1,0,1.9,0.2,2.8,0.7V92c-0.8-0.5-1.7-0.7-2.7-0.7
			c-0.9,0-1.6,0.2-2.1,0.5c-0.5,0.3-0.7,0.8-0.7,1.4c0,0.4,0.2,0.7,0.5,1c0.3,0.3,0.7,0.5,1.2,0.6c0.5,0.1,1,0.3,1.5,0.5
			c0.5,0.2,1,0.4,1.5,0.6c0.5,0.2,0.8,0.6,1.2,1.1c0.3,0.5,0.5,1.1,0.5,1.7c0,0.9-0.4,1.7-1.1,2.2c-0.7,0.5-1.7,0.8-3,0.8
			c-1.2,0-2.4-0.3-3.4-0.8v-1.3c0.9,0.6,2,0.9,3.3,0.9c1.9,0,2.9-0.6,2.9-1.8c0-0.5-0.2-0.9-0.5-1.3c-0.3-0.3-0.7-0.6-1.2-0.8
			l-1.5-0.5c-0.5-0.2-1-0.4-1.5-0.5c-0.5-0.2-0.8-0.5-1.2-0.9C427.2,94.3,427.1,93.8,427.1,93.2z"/>
		<path class="st2" d="M446.6,93.2c0-0.9,0.3-1.6,1-2.2s1.6-0.9,3-0.9c1,0,1.9,0.2,2.8,0.7V92c-0.8-0.5-1.7-0.7-2.7-0.7
			c-0.9,0-1.6,0.2-2.1,0.5c-0.5,0.3-0.7,0.8-0.7,1.4c0,0.4,0.2,0.7,0.5,1c0.3,0.3,0.7,0.5,1.2,0.6c0.5,0.1,1,0.3,1.5,0.5
			c0.5,0.2,1,0.4,1.5,0.6c0.5,0.2,0.8,0.6,1.2,1.1c0.3,0.5,0.5,1.1,0.5,1.7c0,0.9-0.4,1.7-1.1,2.2c-0.7,0.5-1.7,0.8-3,0.8
			c-1.2,0-2.4-0.3-3.4-0.8v-1.3c0.9,0.6,2,0.9,3.3,0.9c1.9,0,2.9-0.6,2.9-1.8c0-0.5-0.2-0.9-0.5-1.3c-0.3-0.3-0.7-0.6-1.2-0.8
			l-1.5-0.5c-0.5-0.2-1-0.4-1.5-0.5c-0.5-0.2-0.8-0.5-1.2-0.9C446.8,94.3,446.6,93.8,446.6,93.2z"/>
		<path class="st2" d="M466.8,101.5V90.2h1.2v11.3H466.8z"/>
		<path class="st2" d="M480.7,95.9c0-3.9,1.8-5.8,5.3-5.8c3.5,0,5.3,1.9,5.3,5.8c0,3.9-1.8,5.8-5.3,5.8
			C482.5,101.7,480.7,99.7,480.7,95.9z M482.9,92.3c-0.6,0.7-1,1.9-1,3.5c0,1.6,0.3,2.8,1,3.5c0.6,0.7,1.7,1.1,3.1,1.1
			c1.4,0,2.4-0.4,3.1-1.1s1-1.9,1-3.5c0-1.6-0.3-2.8-1-3.5s-1.7-1.1-3.1-1.1C484.6,91.2,483.6,91.6,482.9,92.3z"/>
		<path class="st2" d="M503.8,101.5V90.2h1.4l6.8,9.6v-9.6h1.2v11.3h-1.4l-6.8-9.6v9.6H503.8z"/>
	</g>
</g>
</svg>
