<?xml version="1.0" encoding="utf-8"?>
<!-- Generator: Adobe Illustrator 24.0.0, SVG Export Plug-In . SVG Version: 6.00 Build 0)  -->
<svg version="1.1" id="Layer_1" xmlns="http://www.w3.org/2000/svg" xmlns:xlink="http://www.w3.org/1999/xlink" x="0px" y="0px"
	 viewBox="0 0 570.2 116.6" style="enable-background:new 0 0 570.2 116.6;" xml:space="preserve">
<style type="text/css">
	.st0{fill:#6B6B6B;}
	.st1{fill:#2D2D2D;}
	.st2{fill:#22313F;}
	.st3{fill:#5E8E3E;}
	.st4{fill:#95BF47;}
</style>
<g>
	<g>
		<rect x="283.8" y="0" class="st0" width="5.9" height="84.8"/>
		<path class="st0" d="M297.2,68.1c0,2.7,0.6,5.2,1.8,7.2c1.2,2.1,2.6,3.7,4.3,4.8c1.7,1.2,3.8,2.1,6.2,2.9c2.4,0.8,4.7,1.3,6.6,1.5
			c4.5,0.5,8.7,0.4,13-0.3c2.4-0.4,5.1-1.2,7.9-2.3c2.6-1,4.8-2.7,6.4-5s2.5-5.1,2.5-8.4v-17c0-7.2-2.1-12.7-6.4-16.4
			s-10.7-5.6-19-5.6c-5.8,0-11.6,0.8-17.2,2.5v4.6c5-1.4,10.6-2.2,16.7-2.2c6.3,0,11.3,1.2,14.6,3.6c3.5,2.5,5.3,6.7,5.3,12.3V52
			l-11.7-0.6c-1.3,0-2.5,0-3.6,0.1c-1,0-2.8,0.2-5.2,0.4c-2.4,0.2-4.5,0.5-6.2,0.9s-3.7,1-6,1.9c-2.2,0.8-3.9,1.8-5.3,3
			c-1.3,1.1-2.5,2.6-3.4,4.4C297.7,63.7,297.2,65.8,297.2,68.1z M327.4,55.3c4.7,0,8.5,0.2,11.4,0.7l1.4,0.2v12.3
			c0,7.9-6.1,11.9-18.2,11.9h-0.2c-12.3,0-18.6-4.1-18.6-12.2C303.1,59.6,311.3,55.3,327.4,55.3z"/>
		<path class="st0" d="M379,84.9c7.9,0,14-2,18.3-6c4.2-4,6.4-9.7,6.4-17.1V30.4h-5.8V62c0,6.2-1.6,10.8-4.7,13.8s-7.8,4.5-14.1,4.5
			c-6.3,0-11.1-1.5-14.1-4.5c-3.1-3-4.6-7.6-4.6-13.8V30.4h-5.8v31.3c0,7.4,2.1,13.1,6.4,17.1C364.9,82.8,371.1,84.9,379,84.9z"/>
		<path class="st0" d="M448.2,36.5c2.7,0.9,4.7,2.1,5.9,3.8c1.2,1.5,2,3.1,2.4,4.5s0.6,3,0.6,4.7v35.4h5.8V49.5
			c0-6.1-1.9-10.8-5.9-14.1c-4-3.4-9.8-5.1-17.3-5.1c-8.8,0-17.2,1.7-24.9,5v49.5h5.8V37.9l1.2-0.3c5.8-1.5,11.5-2.3,16.9-2.3
			C442.5,35.3,445.7,35.7,448.2,36.5z"/>
		<path class="st0" d="M514.6,36.5v-4.3c-5.5-1.8-11.2-2.7-16.9-2.7c-3.6,0-6.9,0.4-9.9,1.2c-3,0.8-5.9,2.1-8.8,4
			c-2.7,1.8-4.9,4.6-6.6,8.4s-2.5,8.6-2.5,14.1c0,4.5,0.6,8.5,1.7,11.9c1.1,3.3,2.6,6,4.3,7.9c1.7,1.9,3.9,3.5,6.4,4.8
			s5,2.1,7.4,2.5s5.1,0.6,8,0.6c5.9,0,11.6-0.9,16.9-2.6v-4.5c-5,1.7-10.3,2.6-16,2.6c-7.8,0-13.7-1.9-17.4-5.6
			c-3.7-3.7-5.6-9.6-5.6-17.7c0-7.9,1.9-13.8,5.5-17.6c3.7-3.7,9.5-5.6,17.4-5.6C504.1,33.9,509.4,34.8,514.6,36.5z"/>
		<path class="st0" d="M564.4,52.8v32h5.8v-32c0-7.2-2-12.8-5.8-16.7c-3.9-3.9-9.5-5.8-16.7-5.8c-6.1,0-12.2,1.2-18.3,3.5l-2.2,0.8
			V0h-5.8v84.8h5.8V39.2l1-0.4c6.3-2.4,12.5-3.5,18.5-3.5C558.3,35.3,564.4,41.3,564.4,52.8z"/>
	</g>
	<g>
		<path class="st1" d="M0,43.9c0-5.7,2.2-10.1,6.6-13.2c4.4-3.1,10-4.6,16.6-4.6c6.2,0,11.9,1.4,17.1,4.1v10.4
			c-4.2-1.8-9.1-2.7-14.5-2.7c-7.2,0-10.8,1.6-10.8,4.8c0,1.6,1,2.9,3.1,3.8s4.5,1.7,7.5,2.4c2.9,0.7,5.9,1.6,8.8,2.8
			s5.4,3.2,7.5,5.9C44,60.4,45,63.9,45,68.3c0,4.8-2.1,8.7-6.4,11.8c-4.3,3.1-9.9,4.7-16.9,4.7c-7.2,0-13.8-1.5-19.8-4.6V68
			c5.5,3.3,11.4,5,17.7,5c4.3,0,7.1-0.5,8.5-1.4c1.3-0.9,2-2.3,2-4.1c0-1.7-1-3-3.1-4s-4.6-1.9-7.5-2.7s-5.8-1.7-8.8-2.7
			c-2.9-1-5.4-2.8-7.5-5.2C1,50.6,0,47.6,0,43.9z"/>
		<path class="st1" d="M54.1,84.9V0h15.1v28.1c3.6-1.3,7.8-1.9,12.5-1.9c8.7,0,15.5,2.1,20.5,6.3c4.9,4.2,7.4,10.1,7.4,17.7v34.7
			H94.4V49c0-1.5-0.1-2.8-0.4-3.9c-0.3-1-0.9-2.1-1.9-3.3c-1-1.1-2.5-2-4.7-2.5c-2.2-0.6-4.9-0.8-8.3-0.8c-3.9,0-7.2,0.6-10,1.7
			v44.7H54.1z"/>
		<path class="st1" d="M184.5,104.7V45.3c0-5.2,2.2-9.7,6.5-13.5s10.9-5.6,19.9-5.6c2.1,0,4.1,0.1,6.2,0.4c2.1,0.3,4.5,1.1,7.3,2.3
			c2.8,1.3,5.2,2.9,7.2,4.9c2,2,3.7,4.9,5.2,8.8S239,50.9,239,56c0,9.3-2.5,16.4-7.5,21.4s-12.2,7.5-21.5,7.5c-3.5,0-6.9-0.3-10.3-1
			v20.8H184.5z M199.6,73.6c3.5,0.4,6.6,0.7,9.2,0.7c4.9,0,8.6-1.3,11.1-3.9c2.6-2.6,3.8-7.1,3.8-13.6c0-6.7-1-11.5-2.9-14.4
			c-1.9-3-5.3-4.4-10-4.4c-7.5,0-11.3,2-11.3,6.1L199.6,73.6L199.6,73.6z"/>
		<path class="st1" d="M248.5,20.4V8h15.4v12.5h-15.4V20.4z M248.7,84.9V26.2h15.1V85L248.7,84.9L248.7,84.9z"/>
		<path class="st2" d="M131.2,49.3C131.2,49.2,131.2,49.2,131.2,49.3C131.2,49.2,131.2,49.2,131.2,49.3
			C131.2,49.2,131.2,49.2,131.2,49.3z"/>
		<path class="st2" d="M131.2,63.9C131.2,64,131.2,64,131.2,63.9C131.2,64,131.2,64,131.2,63.9C131.2,64,131.2,64,131.2,63.9z"/>
		<g>
			<path class="st3" d="M159.3,32.1c-0.1,2.4,1.5,4.2,3.6,4.1c2.1,0,3.7-1.8,3.5-4.1c-0.8,1.7-1.9,2.6-3.6,2.6
				C161.1,34.7,160,33.7,159.3,32.1z"/>
			<path class="st4" d="M172.3,21.5c-0.1-1.1-0.3-2.2-0.4-3.3c-0.1,0-0.2,0-0.4,0c-0.7,0.2-1.4,0.4-2.1,0.7
				c-8.1,2.8-14.3,8.1-18.9,15.2c-3,4.5-5,9.5-6.4,14.7c-0.1,0.5-0.3,0.8-0.9,1c-1.1,0.4-2.2,0.9-3.1,1.6c-3.9,2.8-6.4,6.7-8.3,11
				l0,0c2.7-1.7,5.4-3.3,8.1-5c0.5-0.3,0.8-0.3,1.3,0c2.9,1.9,5.8,3.8,8.7,5.7c0.3,0.2,0.5,0.6,0.5,0.9c-0.1,1.8-0.2,3.5-0.4,5.3
				c-0.2,1.5-0.4,2.9-0.7,4.6c2.2-2.7,3.9-5.3,5.2-8.2c1.1-2.5,1.7-5.1,1.3-7.8c-0.1-0.7,0.1-1,0.5-1.4c5.4-4.7,9.9-10.1,12.8-16.7
				C171.8,34,173,27.9,172.3,21.5z M147.3,42.9c3.8-9.8,10.1-17.3,19.6-21.9C158.7,26.7,152.2,34.1,147.3,42.9z M162.9,37
				c-2.3,0-4.2-1.9-4.2-4.2s1.9-4.2,4.2-4.2s4.2,1.9,4.2,4.2C167.1,35.1,165.2,37,162.9,37z"/>
			<path class="st3" d="M139.8,59.6c-1.8,1.1-3.5,2.2-5.3,3.2l-7,4.3l2.5-5.5c1.7-3.8,4.3-8.5,9-11.8c0.9-0.6,2-1.2,3.3-1.7
				c1.6-5.8,3.7-10.7,6.6-15.1c1.5-2.3,3.1-4.4,4.9-6.2c-0.1,0-0.1,0-0.2,0c-0.7-0.1-1.5-0.2-2.2-0.3c-0.8-0.1-1.5-0.2-2.3-0.2
				s-1.6-0.1-2.4-0.1c-1.2,0-2.3,0-3.5,0.1c-1.1,0.1-2.2,0.2-3.3,0.3c-1.6,0.3-3.1,0.6-4.5,1c-1.9,0.5-3.7,1.2-5.3,2.1
				c-2,1.1-3.8,2.4-5.4,4c-5.1,5-7.7,12.3-7.7,21.7s2.5,16.7,7.7,21.7c1.6,1.6,3.4,2.9,5.4,4c1.6,0.9,3.4,1.6,5.3,2.1
				c1.4,0.4,2.9,0.7,4.5,1c0.5,0.1,1,0.1,1.5,0.2C134.5,76.5,138.2,64,139.8,59.6z"/>
			<path class="st3" d="M176.2,53.8c0-0.4,0-0.9-0.1-1.3c0-0.2,0-0.5,0-0.7c0-0.5-0.1-0.9-0.1-1.3c0-0.5-0.1-0.9-0.2-1.4
				c-0.1-1-0.3-2-0.6-2.9c-0.2-0.9-0.4-1.7-0.7-2.6v-0.1c-0.7-2-1.5-3.8-2.6-5.4c-0.3,0.8-0.7,1.7-1,2.5c-2.8,6.3-7.1,12-13.2,17.3
				c0.3,2.7-0.2,5.4-1.5,8.6c-1.2,2.9-3,5.6-5.5,8.7l-4.3,5.1l1.2-8.2c0.2-1,0.3-2,0.4-3c0.1-1,0.2-2.1,0.3-3.2
				c-8,11.7-5.4,16.8-2.5,18.9c0.2,0,0.5,0,0.7,0c0.8,0,1.6,0,2.4-0.1c0.8,0,1.6-0.1,2.3-0.2c0.8-0.1,1.5-0.2,2.2-0.3
				c0.7-0.1,1.4-0.3,2.1-0.4c5.2-1.1,9.5-3.4,12.9-6.7c2.7-2.6,4.6-5.9,5.9-9.7v-0.1c0.3-0.8,0.5-1.7,0.7-2.6s0.4-1.9,0.6-2.9
				c0.1-0.5,0.1-0.9,0.2-1.4c0-0.4,0.1-0.9,0.1-1.3c0-0.2,0-0.5,0-0.7c0-0.4,0-0.9,0.1-1.3c0-0.6,0-1.2,0-1.7
				C176.3,54.9,176.3,54.3,176.2,53.8z"/>
		</g>
	</g>
</g>
</svg>
